<?xml version="1.0" encoding="UTF-8"?>
<svg version="1.1" xmlns="http://www.w3.org/2000/svg" width="256" height="256">
<path d="M0 0 C84.48 0 168.96 0 256 0 C256 84.48 256 168.96 256 256 C171.52 256 87.04 256 0 256 C0 171.52 0 87.04 0 0 Z " fill="#5058B7" transform="translate(0,0)"/>
<path d="M0 0 C13.01331283 -0.04640865 26.02660586 -0.08191257 39.0399847 -0.10362434 C45.08308276 -0.11404664 51.12612406 -0.12817753 57.16918945 -0.15087891 C63.00470599 -0.17266259 68.84016805 -0.18458031 74.67572212 -0.18975449 C76.89837056 -0.19344032 79.12101613 -0.20063778 81.34364128 -0.21146011 C84.46475467 -0.22604836 87.58564493 -0.22797487 90.70678711 -0.22705078 C91.61885422 -0.23424133 92.53092133 -0.24143188 93.47062683 -0.24884033 C107.05130946 -0.20553519 119.24306955 4.5641248 129.2265625 14 C132.76276368 17.98796257 135.47163522 22.32092493 138 27 C138.43699219 27.80824219 138.87398437 28.61648437 139.32421875 29.44921875 C144.09033137 40.10189853 143.81639868 54.33270946 139.875 65.1875 C136.09453278 73.48116546 131.19000827 81.23687481 124 87 C123.34 87 122.68 87 122 87 C122 87.66 122 88.32 122 89 C122.56976563 89.24105469 123.13953125 89.48210937 123.7265625 89.73046875 C133.02009767 94.92015763 138.71589277 106.02585594 141.55126953 115.92456055 C144.50561641 129.58881671 141.49394159 142.68813039 134.4375 154.5 C133.63758689 155.67533245 132.82661617 156.84329214 132 158 C131.443125 158.845625 130.88625 159.69125 130.3125 160.5625 C123.11573802 168.14827614 112.55820654 174.6381473 101.88551903 175.08940315 C99.21832196 175.12319598 96.55289492 175.12357256 93.88549805 175.11352539 C92.87039658 175.11367142 91.8552951 175.11381744 90.80943298 175.1139679 C87.46017303 175.11327223 84.11096896 175.10549597 80.76171875 175.09765625 C78.43715953 175.09579084 76.11259992 175.09436752 73.78804016 175.09336853 C67.67409171 175.08955302 61.56016708 175.07973095 55.44622803 175.06866455 C49.20569175 175.05842968 42.96515163 175.05386646 36.72460938 175.04882812 C24.48306246 175.03810784 12.24153321 175.02104299 0 175 C0 169.39 0 163.78 0 158 C1.25121643 158.00079559 2.50243286 158.00159119 3.79156494 158.00241089 C15.61980045 158.00602315 27.44760286 157.978072 39.27569962 157.9197216 C45.35577823 157.89072812 51.43547303 157.87261015 57.515625 157.87988281 C63.39035725 157.88650071 69.26433271 157.86385021 75.13890839 157.82144547 C77.37299656 157.81035814 79.60716189 157.80957428 81.84125519 157.81957626 C100.256703 158.06160342 100.256703 158.06160342 115.9644165 149.25875854 C117.57984153 147.60580357 118.77745537 145.95930994 120 144 C120.40992188 143.35546875 120.81984375 142.7109375 121.2421875 142.046875 C125.43891405 134.23228073 125.26256241 124.63144208 123 116.1875 C120.31269666 109.42508409 115.14681947 103.80116512 108.6875 100.5 C104.82207827 98.92762506 101.9011763 97.8773779 97.766922 97.84178162 C96.90455429 97.8319928 96.04218658 97.82220398 95.15368652 97.81211853 C94.21069702 97.80636307 93.26770752 97.8006076 92.29614258 97.79467773 C90.80318916 97.77982834 90.80318916 97.77982834 89.28007507 97.76467896 C85.98491813 97.73305055 82.68974676 97.70830114 79.39453125 97.68359375 C77.11194989 97.66302539 74.82937235 97.64202895 72.54679871 97.62062073 C66.53479096 97.56538793 60.52274877 97.51598393 54.51068115 97.46777344 C48.37753224 97.41756727 42.24443344 97.36187658 36.11132812 97.30664062 C24.07426154 97.19904425 12.03715148 97.09760252 0 97 C0 91.06 0 85.12 0 79 C1.25787827 78.99635437 2.51575653 78.99270874 3.81175232 78.98895264 C15.68503196 78.95195894 27.55805329 78.89413808 39.43113613 78.81609726 C45.53474924 78.77664343 51.63821852 78.74444447 57.74194336 78.72900391 C63.63599954 78.71382385 69.52966025 78.6793535 75.42354012 78.63169098 C77.6684735 78.61689125 79.91346335 78.6089598 82.15844536 78.60811615 C85.31105234 78.60574059 88.46257166 78.57861214 91.61499023 78.54589844 C92.53640808 78.5509288 93.45782593 78.55595917 94.40716553 78.56114197 C102.92484038 78.42502588 110.09704932 75.61675969 116.4296875 69.84375 C123.02945397 62.09477046 124.43817457 53.45871141 124.3359375 43.61328125 C123.57160437 35.39225629 119.5688122 29.86171143 113.453125 24.5703125 C106.28066062 19.97902161 100.08218885 18.40787596 91.61499023 18.45410156 C90.6188118 18.44376389 89.62263336 18.43342621 88.5962677 18.42277527 C85.33354186 18.39349307 82.0714403 18.39185115 78.80859375 18.390625 C76.53457975 18.37563355 74.26057659 18.35890439 71.98658752 18.34051514 C66.02395103 18.2969381 60.06146142 18.27686377 54.09869385 18.26177979 C48.00516104 18.24217402 41.91178603 18.20020785 35.81835938 18.16015625 C23.87895504 18.0849585 11.9395862 18.03460376 0 18 C0 12.06 0 6.12 0 0 Z " fill="#FAFAFD" transform="translate(58,40)"/>
</svg>
