<?xml version="1.0" encoding="utf-8"?>
<!-- Generator: Adobe Illustrator 27.9.0, SVG Export Plug-In . SVG Version: 6.00 Build 0)  -->
<svg version="1.1" id="Layer_1" xmlns="http://www.w3.org/2000/svg" xmlns:xlink="http://www.w3.org/1999/xlink" 
     x="0px" y="0px" viewBox="0 0 1213 180" 
     style="enable-background:new 0 0 1213 280; width: 1213px; height: 180px;" xml:space="preserve">
<style type="text/css">
    .st0{fill:#FFFFFF;}
</style>
<g>
    <polygon class="st0" points="343.2,107.61 334.84,107.61 361.1,172.91 371.24,172.91 397.5,107.61 389.15,107.61 366.17,163.37"/>
    <polygon class="st0" points="458.96,107.61 449.31,107.61 420.53,172.91 428.21,172.91 454.14,114.08 480.06,172.91 487.74,172.91"/>
    <rect x="183.69" y="165.96" class="st0" width="46.66" height="6.95"/>
    <rect x="183.69" y="107.61" class="st0" width="46.66" height="6.95"/>
    <polygon class="st0" points="280.18,165.96 280.18,107.61 272.66,107.61 272.66,172.91 314.58,172.91 314.58,165.96"/>
    <path class="st0" d="M134.48,140.28c4.77-3.21,7.91-8.65,7.91-14.82c0-9.84-8.01-17.85-17.85-17.85l-36.81,0v6.52h36.81
        c6.23,0,11.29,5.07,11.29,11.29c0,6.23-5.07,11.29-11.29,11.29H87.74v7.09h36.81c6.23,0,11.29,5.07,11.29,11.29
        c0,6.23-5.07,11.29-11.29,11.29H87.74v6.52l36.81,0.04c9.84,0,17.85-8.01,17.85-17.85
        C142.39,148.93,139.25,143.48,134.48,140.28z"/>
    <rect x="183.69" y="136.78" class="st0" width="35" height="6.95"/>
</g>
</svg>

